<svg width="92" height="74" viewBox="0 0 92 74" fill="none" xmlns="http://www.w3.org/2000/svg">
<path d="M82.6667 64.5H73.5001V24.3959L46.0001 41.5834L18.5001 24.3959V64.5H9.33341V9.50004H14.8334L46.0001 28.9792L77.1667 9.50004H82.6667V64.5ZM82.6667 0.333374H9.33341C4.24591 0.333374 0.166748 4.41254 0.166748 9.50004V64.5C0.166748 66.9312 1.13252 69.2628 2.8516 70.9819C4.57069 72.7009 6.90226 73.6667 9.33341 73.6667H82.6667C85.0979 73.6667 87.4295 72.7009 89.1486 70.9819C90.8676 69.2628 91.8334 66.9312 91.8334 64.5V9.50004C91.8334 7.06889 90.8676 4.73731 89.1486 3.01823C87.4295 1.29914 85.0979 0.333374 82.6667 0.333374Z" fill="#542344"/>
</svg>
